<svg xmlns="http://www.w3.org/2000/svg" viewBox="0 0 512 512"><defs><style>.cls-1{fill:#fff;}</style></defs><title>logoAsset 1</title><g id="Layer_2" data-name="Layer 2"><g id="Layer_1-2" data-name="Layer 1"><circle cx="256" cy="256" r="256"/><path class="cls-1" d="M82,324.5h91.4V335H82Z"/><path class="cls-1" d="M190.14,276.68V217.55h15.8v57.09c0,17.39,5.25,24.83,17.61,24.83,9.54,0,16.15-4.73,25-15.73V217.55h15.8v93.33h-13L250,296.26h-.53c-8.65,10.19-18,16.92-30.78,16.92C199,313.18,190.14,300.49,190.14,276.68Z"/><path class="cls-1" d="M295.84,217.55h13.05L310.22,231h.53c8.89-8.76,18.49-15.77,31.31-15.77,19.66,0,28.49,12.69,28.49,36.5v59.14H354.76v-57.1c0-17.38-5.26-24.83-17.61-24.83-9.54,0-16.15,4.88-25.51,14.34v67.59h-15.8Z"/><path class="cls-1" d="M398,188.16c0-6.2,4.76-10.2,10.91-10.2s10.9,4,10.9,10.2c0,6-4.76,10.2-10.9,10.2S398,194.12,398,188.16Zm2.89,29.39h15.79v93.33H400.87Z"/></g></g></svg>